<?xml version="1.0" encoding="utf-8"?>
<!-- Generator: Adobe Illustrator 22.1.0, SVG Export Plug-In . SVG Version: 6.00 Build 0)  -->
<svg version="1.1" id="Layer_1" xmlns="http://www.w3.org/2000/svg" xmlns:xlink="http://www.w3.org/1999/xlink" x="0px" y="0px"
	 viewBox="0 0 302 46" enable-background="new 0 0 302 46" xml:space="preserve">
<g>
	<path fill="#0E102D" d="M84.2,13.8v19.9h-2.6V15.9h-7.1l-0.4,7.9c-0.1,2.6-0.4,4.6-0.8,6c-0.4,1.3-1,2.3-1.8,2.9
		c-0.8,0.6-1.8,0.9-3.1,1h-0.9v-2.1l0.5,0c0.8-0.1,1.5-0.3,2-0.8c0.5-0.5,0.8-1.3,1-2.3c0.2-1.1,0.4-2.7,0.5-4.9l0.4-9.7H84.2z"/>
	<path fill="#0E102D" d="M102.2,13.8h2.6v19.9h-2.6V18.3l-9.8,15.3h-2.6V13.8h2.6v15.3L102.2,13.8z"/>
	<path fill="#0E102D" d="M125.6,33.7H123v-9.2h-10v9.2h-2.6V13.8h2.6v8.6h10v-8.6h2.6V33.7z"/>
	<path fill="#0E102D" d="M143.5,13.8h2.6v19.9h-2.6V18.3l-9.8,15.3h-2.6V13.8h2.6v15.3L143.5,13.8z"/>
	<path fill="#0E102D" d="M162,33.7v-7.8h-4.6l-4.1,7.8h-2.8l4.6-8.5c-2.6-1-3.9-2.8-3.9-5.4c0-1.9,0.6-3.4,1.9-4.4s3-1.6,5.2-1.6
		h6.3v19.9H162z M153.9,19.8c0,1.2,0.4,2.2,1.1,2.9s1.8,1.1,3.1,1.1h3.9v-7.9h-3.7c-1.4,0-2.5,0.3-3.3,1S153.9,18.5,153.9,19.8z"/>
	<path fill="#0E102D" d="M188,19.1c0-1.1-0.4-1.9-1.2-2.5c-0.8-0.6-1.9-0.9-3.2-0.9c-1.2,0-2.1,0.3-2.9,1c-0.8,0.6-1.2,1.4-1.2,2.4
		h-2.6c0-1.1,0.3-2,0.9-2.8c0.6-0.8,1.4-1.5,2.4-2s2.2-0.7,3.4-0.7c2.2,0,4,0.5,5.2,1.5s1.8,2.4,1.8,4.2c0,0.9-0.3,1.8-0.8,2.5
		c-0.6,0.8-1.4,1.4-2.4,1.8c2.3,0.8,3.5,2.3,3.5,4.7c0,1.8-0.7,3.2-2,4.3c-1.3,1-3.1,1.6-5.3,1.6c-1.3,0-2.5-0.2-3.6-0.7
		s-1.9-1.1-2.5-2c-0.6-0.9-0.9-1.9-0.9-3.1h2.6c0,1,0.4,1.9,1.2,2.6c0.8,0.7,1.9,1,3.2,1c1.4,0,2.6-0.3,3.4-1
		c0.9-0.7,1.3-1.5,1.3-2.6c0-2.3-1.4-3.5-4.3-3.6h-2.5v-2.1h2.4c1.3,0,2.3-0.3,3-0.9C187.6,21,188,20.2,188,19.1z"/>
	<path fill="#0E102D" d="M206.1,28.5h-8.3l-1.9,5.2h-2.7l7.6-19.9h2.3l7.6,19.9H208L206.1,28.5z M198.5,26.3h6.8l-3.4-9.3
		L198.5,26.3z"/>
	<path fill="#0E102D" d="M216.8,13.8v17.8h6.8V13.8h2.6v17.8h6.8V13.8h2.6v17.8h2l-0.2,6.9h-2.3v-4.8h-21V13.8H216.8z"/>
	<path fill="#0E102D" d="M254.4,13.8h2.6v19.9h-2.6V18.3l-9.8,15.3H242V13.8h2.6v15.3L254.4,13.8z"/>
	<path fill="#0E102D" d="M275.9,15.9h-6.4v17.8h-2.6V15.9h-6.4v-2.1h15.4V15.9z"/>
	<path fill="#0E102D" d="M282.3,21.9h4.9c2.1,0,3.7,0.6,4.9,1.6c1.2,1,1.8,2.5,1.8,4.2c0,1.8-0.6,3.2-1.8,4.3
		c-1.2,1.1-2.8,1.6-4.8,1.7h-7.6V13.8h2.6V21.9z M282.3,24v7.5h4.8c1.3,0,2.3-0.3,3-1c0.7-0.7,1.1-1.6,1.1-2.8c0-1.1-0.3-2-1-2.7
		s-1.7-1-3-1H282.3z M298.9,33.7h-2.6V13.8h2.6V33.7z"/>
</g>
<g>
	<path fill="#F4AE57" d="M30,39.2c-2.3-0.9-12.6-4.9-12.6-17.1V13c0-1.6,2-1.6,2,0v9.1c0,10.6,7.8,13.8,10.6,15.1
		c0.4,0.2,1.2,0.2,1.6,0c2.8-1.3,10.6-4.5,10.6-15.1V13c0-1.6,2-1.6,2,0v9.1c0,12.1-10.3,16.2-12.6,17.1
		C31.3,39.3,30.2,39.3,30,39.2z"/>
</g>
<path fill="#F4AE57" d="M30.8,17c-2.4,0-4.4-2-4.4-4.4s2-4.4,4.4-4.4c2.4,0,4.4,2,4.4,4.4S33.2,17,30.8,17z M30.8,9.7
	c-1.5,0-2.8,1.3-2.8,2.8s1.3,2.8,2.8,2.8c1.5,0,2.8-1.3,2.8-2.8S32.3,9.7,30.8,9.7z"/>
<path fill="#F4AE57" d="M15.5,29.8c-0.4,0-0.8-0.3-0.9-0.7l-4.3-11.9L6,29.1c-0.2,0.5-0.8,0.8-1.3,0.6C4.2,29.6,4,29,4.2,28.5
	l5.2-14.5c0.1-0.4,0.5-0.7,0.9-0.7s0.8,0.3,0.9,0.7l5.2,14.5c0.2,0.5-0.1,1.1-0.6,1.3C15.8,29.8,15.7,29.8,15.5,29.8z"/>
<path fill="#F4AE57" d="M30.7,43.6c-0.6,0-1-0.4-1-1V16.4c0-0.6,0.4-1,1-1s1,0.4,1,1v26.2C31.7,43.2,31.3,43.6,30.7,43.6z"/>
<path fill="#F4AE57" d="M47,13.5H34.8c-0.6,0-1-0.4-1-1s0.4-1,1-1H47c0.6,0,1,0.4,1,1S47.6,13.5,47,13.5z"/>
<path fill="#F4AE57" d="M26.8,13.5H14.5c-0.6,0-1-0.4-1-1s0.4-1,1-1h12.3c0.6,0,1,0.4,1,1S27.4,13.5,26.8,13.5z"/>
<path fill="#F4AE57" d="M10.3,37.9c-0.2,0-0.5-0.1-0.7-0.3L4.4,33c-0.3-0.3-0.4-0.7-0.3-1.1c0.1-0.4,0.5-0.6,0.9-0.6h10.4
	c0.4,0,0.8,0.3,0.9,0.6c0.1,0.4,0,0.8-0.3,1.1L11,37.7C10.8,37.9,10.6,37.9,10.3,37.9z M7.7,33.2l2.6,2.4l2.6-2.4H7.7z"/>
<path fill="#F4AE57" d="M43.3,6v2.8c0,0-12.4-4.3-12.5-4.3c-0.1,0-12.6,4.3-12.6,4.3V6c0,0,12.3-2.6,12.6-2.6
	C31.1,3.4,43.3,6,43.3,6z"/>
<path fill="#F4AE57" d="M45.9,29.8c0.4,0,0.8-0.3,0.9-0.7l4.3-11.9l4.3,11.9c0.2,0.5,0.8,0.8,1.3,0.6c0.5-0.2,0.8-0.8,0.6-1.3
	l-5.2-14.5c-0.1-0.4-0.5-0.7-0.9-0.7s-0.8,0.3-0.9,0.7L45,28.5c-0.2,0.5,0.1,1.1,0.6,1.3C45.7,29.8,45.8,29.8,45.9,29.8z"/>
<path fill="#F4AE57" d="M50.5,37.7L45.3,33c-0.3-0.3-0.4-0.7-0.3-1.1c0.1-0.4,0.5-0.6,0.9-0.6h10.4c0.4,0,0.8,0.3,0.9,0.6
	c0.1,0.4,0,0.8-0.3,1.1l-5.2,4.7c-0.2,0.2-0.4,0.3-0.7,0.3S50.7,37.9,50.5,37.7z M48.5,33.2l2.6,2.4l2.6-2.4H48.5z"/>
</svg>
