<?xml version="1.0" encoding="utf-8"?>
<!-- Generator: Adobe Illustrator 22.1.0, SVG Export Plug-In . SVG Version: 6.00 Build 0)  -->
<svg version="1.1" id="Layer_1" xmlns="http://www.w3.org/2000/svg" xmlns:xlink="http://www.w3.org/1999/xlink" x="0px" y="0px"
	 viewBox="0 0 380 170" enable-background="new 0 0 380 170" xml:space="preserve">
<g>
	<path fill="#0E102D" d="M53,132.4v27.7h-3.7v-24.7h-9.9l-0.5,11c-0.2,3.7-0.6,6.5-1.1,8.3c-0.6,1.9-1.4,3.2-2.5,4.1
		c-1.1,0.9-2.6,1.3-4.4,1.3h-1.2v-3l0.8,0c1.2-0.1,2.1-0.5,2.7-1.2c0.6-0.7,1.1-1.8,1.4-3.2s0.6-3.8,0.7-6.9l0.6-13.4H53z"/>
	<path fill="#0E102D" d="M78.1,132.4h3.7v27.7h-3.7v-21.4l-13.7,21.4h-3.7v-27.7h3.7v21.4L78.1,132.4z"/>
	<path fill="#0E102D" d="M110.7,160.2H107v-12.8h-14v12.8h-3.7v-27.7h3.7v11.9h14v-11.9h3.7V160.2z"/>
	<path fill="#0E102D" d="M135.7,132.4h3.7v27.7h-3.7v-21.4L122,160.2h-3.7v-27.7h3.7v21.4L135.7,132.4z"/>
	<path fill="#0E102D" d="M161.5,160.2v-10.8h-6.4l-5.7,10.8h-3.9l6.4-11.8c-3.6-1.4-5.4-3.9-5.4-7.6c0-2.6,0.9-4.7,2.6-6.2
		c1.7-1.5,4.1-2.2,7.2-2.2h8.8v27.7H161.5z M150.2,140.8c0,1.7,0.5,3,1.6,4c1,1,2.5,1.5,4.4,1.5h5.4v-10.9h-5.2
		c-2,0-3.5,0.5-4.5,1.4C150.7,137.8,150.2,139.1,150.2,140.8z"/>
	<path fill="#0E102D" d="M197.6,139.9c0-1.5-0.5-2.6-1.6-3.5s-2.6-1.3-4.5-1.3c-1.6,0-3,0.4-4.1,1.3s-1.6,2-1.6,3.3h-3.7
		c0-1.5,0.4-2.8,1.2-4c0.8-1.2,1.9-2.1,3.4-2.7c1.4-0.7,3-1,4.8-1c3.1,0,5.5,0.7,7.2,2.1s2.6,3.3,2.6,5.8c0,1.3-0.4,2.4-1.2,3.5
		c-0.8,1.1-1.9,1.9-3.3,2.5c3.3,1.1,4.9,3.3,4.9,6.5c0,2.5-0.9,4.5-2.8,5.9s-4.3,2.2-7.4,2.2c-1.8,0-3.5-0.3-5-1
		c-1.5-0.7-2.7-1.6-3.5-2.8s-1.3-2.6-1.3-4.3h3.7c0,1.5,0.6,2.7,1.7,3.6c1.2,1,2.6,1.5,4.4,1.5c2,0,3.6-0.5,4.8-1.4
		c1.2-0.9,1.8-2.2,1.8-3.7c0-3.2-2-4.9-6-5h-3.4v-3h3.4c1.9,0,3.3-0.5,4.2-1.3S197.6,141.3,197.6,139.9z"/>
	<path fill="#0E102D" d="M222.8,152.9h-11.6l-2.6,7.3h-3.8l10.6-27.7h3.2l10.6,27.7h-3.8L222.8,152.9z M212.3,149.9h9.4l-4.7-13
		L212.3,149.9z"/>
	<path fill="#0E102D" d="M237.7,132.4v24.7h9.5v-24.7h3.6v24.7h9.5v-24.7h3.7v24.9h2.8l-0.3,9.6h-3.1v-6.7h-29.3v-27.7H237.7z"/>
	<path fill="#0E102D" d="M290.2,132.4h3.7v27.7h-3.7v-21.4l-13.7,21.4h-3.7v-27.7h3.7v21.4L290.2,132.4z"/>
	<path fill="#0E102D" d="M320.1,135.4h-8.9v24.7h-3.6v-24.7h-8.9v-3h21.4V135.4z"/>
	<path fill="#0E102D" d="M329,143.7h6.9c2.9,0,5.2,0.8,6.8,2.2s2.4,3.4,2.4,5.9c0,2.5-0.8,4.5-2.5,6c-1.6,1.5-3.9,2.3-6.7,2.3h-10.6
		v-27.7h3.7V143.7z M329,146.7v10.4h6.7c1.8,0,3.2-0.5,4.2-1.4c1-1,1.5-2.3,1.5-3.9c0-1.6-0.5-2.8-1.5-3.7c-1-0.9-2.4-1.4-4.1-1.4
		H329z M352.1,160.2h-3.7v-27.7h3.7V160.2z"/>
</g>
<g>
	<path fill="#F4AE57" d="M188.8,96.4c-5.8-2.2-31-12.5-31-43.5V29.8c0-4,4-4.1,4,0v23.2c0,27,19.9,36.3,27,39.5c1,0.5,3,0.5,4,0
		c7-3.2,27-12.5,27-39.5V29.8c0-4.1,4-4.1,4,0v23.2c0,30.8-25.2,41.2-31,43.5C192.2,96.7,189.5,96.7,188.8,96.4z"/>
</g>
<path fill="#F4AE57" d="M191.1,39.7c-6.1,0-11.3-5.2-11.3-11.3s5.2-11.3,11.3-11.3s11.3,5.2,11.3,11.3S197.2,39.7,191.1,39.7z
	 M191.1,21.2c-3.9,0-7.3,3.4-7.3,7.3s3.4,7.3,7.3,7.3s7.3-3.4,7.3-7.3S195,21.2,191.1,21.2z"/>
<path fill="#F4AE57" d="M152.1,71.9c-0.8,0-1.6-0.5-1.9-1.3l-11.4-31.8l-11.4,31.8c-0.4,1-1.5,1.6-2.6,1.2c-1-0.4-1.6-1.5-1.2-2.6
	l13.3-37c0.3-0.8,1-1.3,1.9-1.3s1.6,0.5,1.9,1.3l13.3,37c0.4,1-0.2,2.2-1.2,2.6C152.6,71.9,152.4,71.9,152.1,71.9z"/>
<path fill="#F4AE57" d="M256.2,71.9c-0.8,0-1.6-0.5-1.9-1.3l-11.4-31.8l-11.4,31.8c-0.4,1-1.5,1.6-2.6,1.2c-1-0.4-1.6-1.5-1.2-2.6
	l13.3-37c0.3-0.8,1-1.3,1.9-1.3s1.6,0.5,1.9,1.3l13.3,37c0.4,1-0.2,2.2-1.2,2.6C256.6,71.9,256.4,71.9,256.2,71.9z"/>
<path fill="#F4AE57" d="M190.8,109.1c-1.1,0-2-0.9-2-2V37.7c0-1.1,0.9-1,2-1s2-0.1,2,1v69.4C192.8,108.2,191.9,109.1,190.8,109.1z"
	/>
<path fill="#F4AE57" d="M232.4,30.4h-32.1c-1.1,0-1-0.9-1-2s-0.1-2,1-2h32.1c1.1,0,2,0.9,2,2S233.5,30.4,232.4,30.4z"/>
<path fill="#F4AE57" d="M181.7,30.4h-32.1c-1.1,0-2-0.9-2-2s0.9-2,2-2h32.1c1.1,0,1,0.9,1,2S182.8,30.4,181.7,30.4z"/>
<path fill="#F4AE57" d="M138.8,92.6c-0.5,0-1-0.2-1.3-0.5l-13.3-12c-0.6-0.6-0.8-1.4-0.5-2.2s1-1.3,1.9-1.3h26.6
	c0.8,0,1.6,0.5,1.9,1.3s0.1,1.6-0.5,2.2l-13.3,12C139.8,92.5,139.3,92.6,138.8,92.6z M130.7,80.6l8.1,7.3l8.1-7.3H130.7z"/>
<path fill="#F4AE57" d="M242.9,92.6c-0.5,0-1-0.2-1.3-0.5l-13.3-12c-0.6-0.6-0.8-1.4-0.5-2.2s1-1.3,1.9-1.3h26.6
	c0.8,0,1.6,0.5,1.9,1.3s0.1,1.6-0.5,2.2l-13.3,12C243.8,92.5,243.3,92.6,242.9,92.6z M234.8,80.6l8.1,7.3l8.1-7.3H234.8z"/>
<path fill="#F4AE57" d="M222.8,11.7v7.2c0,0-31.5-10.9-31.9-10.9c-0.3,0-32.1,10.9-32.1,10.9v-7.2c0,0,31.4-6.5,32.1-6.5
	C191.7,5.2,222.8,11.7,222.8,11.7z"/>
</svg>
