<?xml version="1.0" encoding="utf-8"?>
<!-- Generator: Adobe Illustrator 22.1.0, SVG Export Plug-In . SVG Version: 6.00 Build 0)  -->
<svg version="1.1" id="Layer_1" xmlns="http://www.w3.org/2000/svg" xmlns:xlink="http://www.w3.org/1999/xlink" x="0px" y="0px"
	 viewBox="0 0 140 110" enable-background="new 0 0 140 110" xml:space="preserve">
<g>
	<path fill="#F4AE57" d="M68.3,93.8c-5.8-2.2-31-12.5-31-43.5V27.1c0-4,4-4.1,4,0v23.2c0,27,19.9,36.3,27,39.5c1,0.5,3,0.5,4,0
		c7-3.2,27-12.5,27-39.5V27.1c0-4.1,4-4.1,4,0v23.2c0,30.8-25.2,41.2-31,43.5C71.7,94.1,69,94.1,68.3,93.8z"/>
</g>
<path fill="#F4AE57" d="M70.6,37.1c-6.1,0-11.3-5.2-11.3-11.3s5.2-11.3,11.3-11.3s11.3,5.2,11.3,11.3S76.7,37.1,70.6,37.1z
	 M70.6,18.5c-3.9,0-7.3,3.4-7.3,7.3s3.4,7.3,7.3,7.3s7.3-3.4,7.3-7.3S74.4,18.5,70.6,18.5z"/>
<path fill="#F4AE57" d="M31.6,69.3c-0.8,0-1.6-0.5-1.9-1.3L18.3,36.2L6.9,68c-0.4,1-1.5,1.6-2.6,1.2c-1-0.4-1.6-1.5-1.2-2.6l13.3-37
	c0.3-0.8,1-1.3,1.9-1.3s1.6,0.5,1.9,1.3l13.3,37c0.4,1-0.2,2.2-1.2,2.6C32.1,69.3,31.9,69.3,31.6,69.3z"/>
<path fill="#F4AE57" d="M135.7,69.3c-0.8,0-1.6-0.5-1.9-1.3l-11.4-31.8L110.9,68c-0.4,1-1.5,1.6-2.6,1.2c-1-0.4-1.6-1.5-1.2-2.6
	l13.3-37c0.3-0.8,1-1.3,1.9-1.3s1.6,0.5,1.9,1.3l13.3,37c0.4,1-0.2,2.2-1.2,2.6C136.1,69.3,135.9,69.3,135.7,69.3z"/>
<path fill="#F4AE57" d="M70.3,106.5c-1.1,0-2-0.9-2-2V35.1c0-1.1,0.9-1,2-1s2-0.1,2,1v69.4C72.3,105.6,71.4,106.5,70.3,106.5z"/>
<path fill="#F4AE57" d="M111.9,27.8H79.8c-1.1,0-1-0.9-1-2s-0.1-2,1-2h32.1c1.1,0,2,0.9,2,2S113,27.8,111.9,27.8z"/>
<path fill="#F4AE57" d="M61.2,27.8H29.1c-1.1,0-2-0.9-2-2s0.9-2,2-2h32.1c1.1,0,1,0.9,1,2S62.3,27.8,61.2,27.8z"/>
<path fill="#F4AE57" d="M18.3,90c-0.5,0-1-0.2-1.3-0.5l-13.3-12c-0.6-0.6-0.8-1.4-0.5-2.2S4.2,74,5,74h26.6c0.8,0,1.6,0.5,1.9,1.3
	s0.1,1.6-0.5,2.2l-13.3,12C19.3,89.9,18.8,90,18.3,90z M10.2,78l8.1,7.3l8.1-7.3H10.2z"/>
<path fill="#F4AE57" d="M122.4,90c-0.5,0-1-0.2-1.3-0.5l-13.3-12c-0.6-0.6-0.8-1.4-0.5-2.2s1-1.3,1.9-1.3h26.6
	c0.8,0,1.6,0.5,1.9,1.3s0.1,1.6-0.5,2.2l-13.3,12C123.3,89.9,122.8,90,122.4,90z M114.3,78l8.1,7.3l8.1-7.3H114.3z"/>
<path fill="#F4AE57" d="M102.3,9.1v7.2c0,0-31.5-10.9-31.9-10.9c-0.3,0-32.1,10.9-32.1,10.9V9.1c0,0,31.4-6.5,32.1-6.5
	C71.2,2.6,102.3,9.1,102.3,9.1z"/>
</svg>
